<svg xmlns="http://www.w3.org/2000/svg" version="1.1" xmlns:xlink="http://www.w3.org/1999/xlink" xmlns:svgjs="http://svgjs.dev/svgjs" width="308" height="350"><svg xmlns="http://www.w3.org/2000/svg" width="308" height="350" style="shape-rendering:geometricPrecision;text-rendering:geometricPrecision;image-rendering:optimizeQuality;fill-rule:evenodd;clip-rule:evenodd"><path fill="#fcfcfc" d="M-.5-.5h308v350H-.5z" style="opacity:1"></path><path fill="#0a0a0a" d="M142.5 2.5q88.08-.069 127.5 78 33.476 90.563-43.5 148.5-86.581 50.851-166-10Q-8.308 153.36 35 68.5q37.56-59.164 107.5-66" style="opacity:1"></path><path fill="#f8f8f8" d="M175.5 71.5h-1a207 207 0 0 1 11-13.5q18.487-.215 15.5-18.5-10.444-13.135-22-1a10.4 10.4 0 0 0-1.5 5q1.893 5.4 1.5 11a534 534 0 0 0-25 30 242 242 0 0 1-.5-22q12.235-1.998 15.5-14 3.413-27.59-24.5-26.5-23.627 11.391-10.5 34.5 4.793 5.74 11.5 8 .486 10.281-1 20a440 440 0 0 0-24.5-31 67.8 67.8 0 0 0 1-13q-11.5-16-23 0-2.574 18.683 16.5 18 7.094 6.725 12 15-20.577-7.647-19.5 14 2.151 6.651 9 8a33.2 33.2 0 0 1-.5 14 797 797 0 0 0-21.5-26q4.094-7.52 5.5-16.5Q97.818 53.318 84 51.5q-15.655 1.404-16.5 17 1.615 17.367 19 17.5l20 23a3112 3112 0 0 1-37-17L67 89.5Q63.046 72.148 46.5 79q-7.638 9.405-.5 19.5 8.91 5.791 17.5-1a2704 2704 0 0 1 62 31.5q-8.751 1.722-18 1.5l-17-1q-8.907-22.46-33-18.5-22.427 7.942-18.5 31.5 6.985 26.12 33.5 20.5 9.448-2.945 14.5-11.5 3.466-6.4 4.5-13.5 15-1 30 0 21.677 4.19 23.5 26.5a42.5 42.5 0 0 1 0 13 1863 1863 0 0 1-105.5.5 9.5 9.5 0 0 1-2.5-1.5Q7.11 99.813 66.5 43q60.1-49.303 133-21 73.914 36.06 72.5 118.5a127.4 127.4 0 0 1-10.5 36.5q-53.997.75-108 .5-2.799-20.853 12-35.5l6-3a164.4 164.4 0 0 1 35-1 418 418 0 0 1 6.5 15.5q17.018 18.391 38.5 5.5 20.771-23.534-2-45-28.694-12.197-41 16a289 289 0 0 1-34 0 27.8 27.8 0 0 1 8-6 1802 1802 0 0 1 51-25q2.5-1 5 0 16.552 6.705 19-11.5-3.068-13.552-17-10.5-7.832 4.827-8 14a898 898 0 0 0-36 17.5q-1.532-.752-.5-2l16-20q21.96-1.965 20-24-6.006-13.379-20.5-10.5-13.375 5.998-10.5 20.5 1.404 5.56 5.5 9.5a1569 1569 0 0 1-23.5 29.5 64.2 64.2 0 0 1 0-16q12.177-4.98 9-18-5.565-10.118-16.5-6" style="opacity:1"></path><path fill="#f6f6f6" d="M145.5 28.5q16.51-1.175 16.5 15-3.25 1.25-4.5 4.5-11.947 1.743-20.5-6.5-.28-9.436 8.5-13" style="opacity:1"></path><path fill="#ebebeb" d="M106.5 40.5q6.087-1.212 8 4.5-3.132 7.719-8.5 1.5-3.08-3.32.5-6" style="opacity:1"></path><path fill="#ededed" d="M188.5 39.5q9.117 1.706 4 9.5-2.5 1-5 0a20.5 20.5 0 0 0-3-5.5q1.573-2.574 4-4" style="opacity:1"></path><path fill="#f6f6f6" d="M212.5 58.5q13.522-1.225 12.5 12-3.21 8.98-12.5 6.5-9.93-9.247 0-18.5" style="opacity:1"></path><path fill="#f0f0f0" d="M80.5 58.5q8.76-.252 12 8-7.896 11.422-17.5 1-.104-6.165 5.5-9" style="opacity:1"></path><path fill="#5a5a5a" d="M145.5 64.5q1.978 10.266 0 21-.91-.186-1-1 1.486-9.719 1-20" style="opacity:1"></path><path fill="#7f7f7f" d="M174.5 71.5h1a2507 2507 0 0 0-6 7v-1q1.379-3.885 5-6" style="opacity:1"></path><path fill="#efefef" d="M116.5 77.5q6.27.766 6 7-4.422.416-8.5-1-1-1.5 0-3a10.5 10.5 0 0 0 2.5-3" style="opacity:1"></path><path fill="#e1e1e1" d="M179.5 77.5q9.103.816 4.5 9-2.532 3.522-5.5.5l4-1q-9.788-1.965-3-8.5" style="opacity:1"></path><path fill="#fafafa" d="M126.5 73.5a182 182 0 0 1 19 26 485 485 0 0 1-1 44 271 271 0 0 1-20.5-27 88.7 88.7 0 0 1 .5-23q8.792-9.135 2-20M169.5 77.5v1a31.8 31.8 0 0 0 1.5 12 15 15 0 0 0 3.5 3 96.5 96.5 0 0 1 .5 24l-21 27a552 552 0 0 1 0-47 114.8 114.8 0 0 1 15.5-20" style="opacity:1"></path><path fill="#f1f1f1" d="M242.5 83.5q10.48-.254 5 8.5-9.831-.065-5-8.5" style="opacity:1"></path><path fill="#f4f4f4" d="M52.5 83.5q6.437.645 5 6.5-10.969 1.85-5-6.5" style="opacity:1"></path><path fill="#fbfbfb" d="M58.5 117.5q27.27-1.982 24.5 25-8.01 20.379-28.5 12.5-11.73-10.139-8.5-25.5 3.948-8.564 12.5-12" style="opacity:1"></path><path fill="#737373" d="M145.5 99.5q1.989 22.258 0 45-.91-.186-1-1a485 485 0 0 0 1-44" style="opacity:1"></path><path fill="#fbfbfb" d="M228.5 117.5q30.79-.958 23.5 29-11.593 17.585-29.5 6.5-8.727-9.514-6.5-22.5 3.53-9.277 12.5-13" style="opacity:1"></path><path fill="#101010" d="M109.5 151.5h4q.42 4.84 4 8a35 35 0 0 1-6 8 57.5 57.5 0 0 1-9-9q6.028-1.028 7-7" style="opacity:1"></path><path fill="#0e0e0e" d="M186.5 151.5a4.93 4.93 0 0 1 3 .5q1.572 4.33 5 7.5a66 66 0 0 1-6.5 7 20.23 20.23 0 0 1-7.5-7.5 21.8 21.8 0 0 0 6-7.5" style="opacity:1"></path><path fill="#fefefe" d="M46.5 185.5h99v7q-49.002.25-98-.5-3.276-2.846-1-6.5M153.5 185.5q51.502-.25 103 .5l-4 6q-49.497.75-99 .5z" style="opacity:1"></path><path fill="#fdfdfd" d="M57.5 200.5h88v6q-43.011.5-86-1-2.175-2.024-2-5M153.5 200.5q46.002-.25 92 .5l-5 5q-43.5 1-87 0-1.878-2.742 0-5.5" style="opacity:1"></path><path fill="#e5e5e5" d="M87.5 213.5q28.505-.25 57 .5 2 4 0 8-28.5 1-57 0-3.901-4.245 0-8.5" style="opacity:1"></path><path fill="#ebebeb" d="M154.5 213.5q37.542-.613 75 1.5a41.4 41.4 0 0 1-10 7q-32.995.75-66 .5-.354-4.663 1-9" style="opacity:1"></path><path fill="#f0f0f0" d="M167.5 228.5a256 256 0 0 1 38 1.5q-16.352 8.879-35 11a1592 1592 0 0 1-17 1.5v-13q7.295.479 14-1" style="opacity:1"></path><path fill="#0b0b0b" d="M30.5 260.5q5.68-1.029 9.5 3a335 335 0 0 1 8 19 810 810 0 0 1 8.5-21 16.9 16.9 0 0 1 8-1 409 409 0 0 1-13 33.5q-4.27 1.416-7.5-1.5a662 662 0 0 1-13.5-32" style="opacity:1"></path><path fill="#0a0a0a" d="M157.5 260.5q8.514-.249 17 .5 14.203 6.596 6 20-7.467 4.116-16 3.5v9h-8a282 282 0 0 1 1-33" style="opacity:1"></path><path fill="#0b0b0b" d="M193.5 260.5q8.514-.249 17 .5 17.533 8.699 4 23a77 77 0 0 1 6 8.5 82 82 0 0 1-7 2 111 111 0 0 1-8-9.5 12.9 12.9 0 0 0-5-.5v9h-7z" style="opacity:1"></path><path fill="#090909" d="M243.5 260.5q17.971-1.036 21 16.5-4.564 20.527-25 16-13.994-10.466-6.5-26.5 4.462-4.784 10.5-6M101.5 292.5q-3.672 1.46-8 1-1.376-8.055-9.5-6-8.306-1.696-10.5 6.5-3.465.745-7 .5a350 350 0 0 1 13.5-33q4-2 8 0 6.768 15.532 13.5 31" style="opacity:1"></path><path fill="#0f0f0f" d="M111.5 260.5q9.513-.25 19 .5 11.408 5.587 6.5 17.5l-4.5 4.5 6.5 8.5q.926 1.423-.5 2.5a12.5 12.5 0 0 1-7 0l-8-10a8.4 8.4 0 0 0-4-.5 50.5 50.5 0 0 1-.5 10q-4 2-8 0 .314-16.475.5-33" style="opacity:1"></path><path fill="#f6f6f6" d="M119.5 268.5a41 41 0 0 1 9 .5q4 3.5 0 7a41 41 0 0 1-9 .5z" style="opacity:1"></path><path fill="#f5f5f5" d="M164.5 268.5a41 41 0 0 1 9 .5q4 3.5 0 7a21.3 21.3 0 0 1-9 1.5z" style="opacity:1"></path><path fill="#ededed" d="M200.5 268.5a41 41 0 0 1 9 .5q4.148 4.45-1 8-10.256 1.99-8-8.5" style="opacity:1"></path><path fill="#f3f3f3" d="M244.5 267.5q14.594 1.179 9.5 15-12.441 9.812-16.5-5.5.815-6.935 7-9.5" style="opacity:1"></path><path fill="#ededed" d="M83.5 271.5q3.187 3.882 4 9h-7a50 50 0 0 1 3-9" style="opacity:1"></path><path fill="#8e8e8e" d="M101.5 292.5q.814.09 1 1-4.718 1.954-9 0 4.328.46 8-1" style="opacity:1"></path><path fill="#0c0c0c" d="M81.5 304.5q9.54.02 8 9a4.94 4.94 0 0 1-1 2.5 32.5 32.5 0 0 1-8 .5q-.395-6.15 1-12" style="opacity:1"></path><path fill="#0e0e0e" d="M223.5 304.5q5.316 4.63 6 12-2.976.175-5-2-2.024 2.175-5 2a42.4 42.4 0 0 1 4-12" style="opacity:1"></path><path fill="#171717" d="M32.5 304.5a4.93 4.93 0 0 1 3 .5 61 61 0 0 1 3 5.5q1.27-3.558 4-6l1 2a137 137 0 0 0-4 10.5q-1.424.926-2.5-.5a52.3 52.3 0 0 1-4.5-12" style="opacity:1"></path><path fill="#0e0e0e" d="M46.5 305.5q1.762-.329 3 1a32.2 32.2 0 0 1 4 10q-3.15.034-5.5-2a20 20 0 0 0-4.5 3l-1-1.5a146 146 0 0 1 4-10.5" style="opacity:1"></path><path fill="#191919" d="M54.5 305.5q12.574-2.955 7 8l2 3-1.5 1a601 601 0 0 0-3.5-3q-1.536 2.03-4 2z" style="opacity:1"></path><path fill="#090909" d="M65.5 304.5q1.94 2.322 2 6l-1 6a36.9 36.9 0 0 1-1-12" style="opacity:1"></path><path fill="#101010" d="M72.5 305.5q1.983-.255 3.5 1 4.06 5.039 2.5 11-3.451-5.235-8-1l-1-1.5a67 67 0 0 1 3-9.5" style="opacity:1"></path><path fill="#131313" d="M91.5 305.5h3v8h4v3h-7z" style="opacity:1"></path><path fill="#181818" d="M107.5 316.5h-7v-11q3.325-1.303 7-1v3q-2.217-.393-4 1 1.238 1.329 3 1v3q-5.923.29 0 1.5 1.128 1.006 1 2.5" style="opacity:1"></path><path fill="#151515" d="M121.5 311.5v2q-3.459 7.609-8 .5l4-1q-6.031-3.046-2-8 7.864-.948 2 3.5a174 174 0 0 1 4 3" style="opacity:1"></path><path fill="#161616" d="M123.5 316.5v-11q3.161-1.452 7-1v3q-2.217-.393-4 1a32 32 0 0 1 4 2.5q-2.316.435-4 2 2.679.294 4 2.5a13.1 13.1 0 0 1-7 1" style="opacity:1"></path><path fill="#121212" d="M132.5 305.5q2.804 3.203 2 8 3.248-.576 5 2a13.1 13.1 0 0 1-7 1z" style="opacity:1"></path><path fill="#131313" d="M140.5 305.5q4.12-.47 8 1-1.821 2.353-5 2.5a4.93 4.93 0 0 0 3 .5v3a4.93 4.93 0 0 0-3 .5q2.679.294 4 2.5a13.1 13.1 0 0 1-7 1z" style="opacity:1"></path><path fill="#1d1d1d" d="M152.5 304.5q3.334-.483 5.5 2 3.746-2.967 8.5-1.5 1.255 1.517 1 3.5h-3a21.1 21.1 0 0 1-1 9 63.7 63.7 0 0 0-4.5-10 26.7 26.7 0 0 1-6.5 1.5q-2 2 0 4a12.9 12.9 0 0 0 5 .5q-.42 5.588-6 3.5-6.268-6.88 1-12.5" style="opacity:1"></path><path fill="#101010" d="M168.5 305.5h3q-.616 23.78-3 0" style="opacity:1"></path><path fill="#141414" d="M184.5 308.5q2 2.5 0 5-5.046 7.95-10.5 0-2.25-9.75 7.5-7.5 2.163.565 3 2.5" style="opacity:1"></path><path fill="#111" d="M186.5 305.5q3.382 1.721 5.5 5a12.9 12.9 0 0 0 .5-5h3a50.5 50.5 0 0 1-.5 10 3.65 3.65 0 0 1-1.5 1 25.5 25.5 0 0 1-4.5-4 10.3 10.3 0 0 1-1.5 4q-.91-.186-1-1z" style="opacity:1"></path><path fill="#131313" d="M212.5 305.5v2a35.2 35.2 0 0 1-5 10q-3.741-5.482-6-12 1.298-1.624 3-.5a61 61 0 0 1 3 5.5 19 19 0 0 0 3-5q1.135-1.91 2 0" style="opacity:1"></path><path fill="#9a9a9a" d="M212.5 305.5h2v11l-2-9z" style="opacity:1"></path><path fill="#131313" d="M214.5 316.5v-11q.09-.814 1-1 2 6.5 0 13-.91-.186-1-1" style="opacity:1"></path><path fill="#212121" d="M243.5 305.5v3h-3a21.1 21.1 0 0 1-1 9 3.65 3.65 0 0 1-1.5-1 32.5 32.5 0 0 1-.5-8h-3v-4q4.82-.465 9 1" style="opacity:1"></path><path fill="#0f0f0f" d="M245.5 316.5v-11q2.25 1.632 4 4 3.046-1.558 4-5 2 6.5 0 13-3.277-9.912-7 0-.91-.186-1-1" style="opacity:1"></path><path fill="#141414" d="M263.5 315.5q-2.647 1.442-6 1-1.475-5.697-1-12h8v3q-9.12.048-1 3.5-1.684 1.565-4 2a51 51 0 0 0 4 2.5" style="opacity:1"></path><path fill="#9f9f9f" d="M57.5 308.5q4.945-.257 1 2-1.195-.686-1-2" style="opacity:1"></path><path fill="#f3f3f3" d="M177.5 308.5q5.491-.225 3 4.5-5.69.73-3-4.5" style="opacity:1"></path><path fill="#686868" d="M243.5 305.5h2v11l-2-8z" style="opacity:1"></path><path fill="#8a8a8a" d="M123.5 305.5v11l-2-3v-2z" style="opacity:1"></path><path fill="#8b8b8b" d="M186.5 305.5v10l-2-2q2-2.5 0-5z" style="opacity:1"></path><path fill="#7f7f7f" d="M100.5 305.5v11h7q-3.672 1.46-8 1-.475-6.303 1-12" style="opacity:1"></path><path fill="#989898" d="M263.5 315.5q.814.09 1 1-3.71 1.946-7 0 3.353.442 6-1" style="opacity:1"></path><path fill="#2f2f2f" d="M166.5 329.5q1.983-.255 3.5 1a30.5 30.5 0 0 1 0 11q-1.5 4-3 0a72.4 72.4 0 0 1-.5-12" style="opacity:1"></path><path fill="#171717" d="M183.5 329.5a19 19 0 0 1 8 1.5q.94 2.607 1 5.5.478 9.5-9 7z" style="opacity:1"></path><path fill="#161616" d="M266.5 332.5v3q-3.673 3.29 0 7l-1.5 1q-2.215-1.416-3-4-3.897 8.267-4.5-1v-7q.951-2.17 3.5-2 3.598.17 5.5 3" style="opacity:1"></path><path fill="#0a0a0a" d="M268.5 329.5q1.494-.129 2.5 1 1 6 0 12-1.466 1.911-2.5 0z" style="opacity:1"></path><path fill="#161616" d="M273.5 329.5q5.502.375 10.5 0a18.1 18.1 0 0 1 4.5 4q1.523-4.001 5-2-4.306 5.279-4 12h-3q.51-5.446-2.5-10-1.948-.699-4.5 0a41 41 0 0 1-.5 9 3.65 3.65 0 0 1-1.5 1 25.9 25.9 0 0 1-1-10q-5.229.307-3-4" style="opacity:1"></path><path fill="#0e0e0e" d="M16.5 330.5q5.26-.76 9.5 2 1.023 3.657-1.5 6.5a11.3 11.3 0 0 0 2 4l-2 .5a13.1 13.1 0 0 1-4-3l-2 3a3.65 3.65 0 0 1-1.5-1 72.4 72.4 0 0 1-.5-12" style="opacity:1"></path><path fill="#121212" d="M27.5 330.5h4v9h4v-9h3a41 41 0 0 1-.5 9q-5 8-10 0a41 41 0 0 1-.5-9" style="opacity:1"></path><path fill="#151515" d="M41.5 329.5q2.605 3.762 2.5 9 3.265.732 5.5 3a3.65 3.65 0 0 1-1 1.5 32.5 32.5 0 0 1-8 .5 53.8 53.8 0 0 1 1-14M51.5 329.5a25 25 0 0 0 8 1v3q-8.81.147-1 3l-4 2q3.015.847 5 3a21.1 21.1 0 0 1-9 1 46.8 46.8 0 0 1 1-13" style="opacity:1"></path><path fill="#141414" d="M70.5 329.5q3.535-.245 7 .5 2.52.52 3 3a26 26 0 0 0-.5 8.5q-4.24 2.76-9.5 2z" style="opacity:1"></path><path fill="#101010" d="M86.5 330.5q1.495-.129 2.5 1 3.965 5.592 2.5 12a13.1 13.1 0 0 0-4-3 20.8 20.8 0 0 1-6 3 51.3 51.3 0 0 1 5-13" style="opacity:1"></path><path fill="#151515" d="M103.5 337.5v2q-2.076 5.942-8 3-1.329-1.237-1-3 2.55.24 5-.5-9.095-4.472-1-9.5 2.845.342 4 3-2.22.92-4 1 2.879 1.668 5 4M105.5 343.5v-13q3.192-1.694 7-.5 1.255 1.517 1 3.5-8.641.313-1 2.5a32 32 0 0 1-4 2.5q1.783 1.393 4 1v3a51.6 51.6 0 0 1-7 1" style="opacity:1"></path><path fill="#080808" d="M114.5 330.5q6.509-.981 11.5 3 .849 11.88-11.5 10z" style="opacity:1"></path><path fill="#161616" d="M131.5 329.5a4.93 4.93 0 0 1 3 .5 20.5 20.5 0 0 0 3 5.5 121 121 0 0 1 4.5-6 4.46 4.46 0 0 1 1.5 2q-1.591 6.822-6 12-4.655-6.306-6-14" style="opacity:1"></path><path fill="#121212" d="M146.5 330.5q3.138.091 4.5 3a30.2 30.2 0 0 1 2.5 9q-3.15.034-5.5-2a20 20 0 0 0-4.5 3l-1-2q2.008-5.527 4-11M156.5 329.5q6.209-.895 9 4.5-2.817 4.616-2 9.5l-4-3q-1.536 2.03-4 2a46.8 46.8 0 0 1 1-13" style="opacity:1"></path><path fill="#0f0f0f" d="M175.5 330.5q3.186.797 4.5 4a19.1 19.1 0 0 0 2.5 7l-1.5 1q-4.28-3.888-8.5 0-1.026-6.459 3-12" style="opacity:1"></path><path fill="#070707" d="M201.5 342.5q-3.675.303-7-1a31.1 31.1 0 0 1 1-11 3.65 3.65 0 0 1 1.5 1q.746 3.97.5 8a8.4 8.4 0 0 1 4 .5q1.911 1.466 0 2.5" style="opacity:1"></path><path fill="#555" d="M211.5 330.5h-7v11q-1.475-5.697-1-12 4.328-.46 8 1" style="opacity:1"></path><path fill="#151515" d="M211.5 330.5q-1.252 2.164-4 3 8 2.5 0 5 2.318 1.428 5 1v4q-4.797.804-8-2v-11z" style="opacity:1"></path><path fill="#0d0d0d" d="M228.5 332.5q2 2.5 0 5-4.942.435-6 5h-3a72.4 72.4 0 0 1 .5-12q5.088-2.334 8.5 2" style="opacity:1"></path><path fill="#0f0f0f" d="M230.5 342.5v-11q11.644-3.609 7 7.5a11.1 11.1 0 0 0 2 3.5l-1.5 1a20 20 0 0 1-4.5-3 6.8 6.8 0 0 0-1.5 3q-.575-.834-1.5-1" style="opacity:1"></path><path fill="#1b1b1b" d="M243.5 331.5v11q-.865 1.91-2 0-2-5.5 0-11 1.135-1.91 2 0" style="opacity:1"></path><path fill="#131313" d="M255.5 333.5q1.201 2.313 1 5-1.119 4.583-6 5-3.392-.893-5-4v-6q2.86-4.249 8-2.5 1.321 1.063 2 2.5" style="opacity:1"></path><path fill="#898989" d="m243.5 331.5 2 2v6l-2 3z" style="opacity:1"></path><path fill="#7b7b7b" d="M257.5 331.5v7h-1q.201-2.687-1-5z" style="opacity:1"></path><path fill="#999" d="M230.5 331.5v11l-2-5q2-2.5 0-5z" style="opacity:1"></path><path fill="#fcfcfc" d="M233.5 333.5q2.755.209 1 2-1.197-.686-1-2" style="opacity:1"></path><path fill="#dfdfdf" d="M259.5 333.5q6.132-.423 1.5 2-1.545-.504-1.5-2" style="opacity:1"></path><path fill="#d8d8d8" d="M20.5 333.5q2.755.209 1 2-1.195-.686-1-2" style="opacity:1"></path><path fill="#dfdfdf" d="M118.5 333.5q5.775.301 3 5.5-5.945.177-3-5.5" style="opacity:1"></path><path fill="#dcdcdc" d="M158.5 333.5q1.763-.329 3 1-2.328 1.947-3-1" style="opacity:1"></path><path fill="#cdcdcd" d="M222.5 333.5q1.763-.329 3 1-2.328 1.947-3-1" style="opacity:1"></path><path fill="#ebebeb" d="M249.5 333.5q5.775.301 3 5.5-7.817.82-3-5.5" style="opacity:1"></path><path fill="#0a0a0a" d="M61.5 335.5h7v4h-7z" style="opacity:1"></path><path fill="#898989" d="M268.5 329.5v13l-2-7v-3z" style="opacity:1"></path><path fill="#919191" d="M105.5 330.5v13l-2-4v-2z" style="opacity:1"></path><path fill="#d8d8d8" d="M74.5 337.5q2.755.209 1 2-1.195-.686-1-2" style="opacity:1"></path><path fill="#595959" d="M194.5 341.5q3.325 1.303 7 1-1.423.978-3.5 1-2.522-.162-3.5-2" style="opacity:1"></path></svg><style>@media (prefers-color-scheme: light) { :root { filter: none; } }
@media (prefers-color-scheme: dark) { :root { filter: none; } }
</style></svg>