<?xml version="1.0" standalone="no"?>
<!DOCTYPE svg PUBLIC "-//W3C//DTD SVG 20010904//EN"
 "http://www.w3.org/TR/2001/REC-SVG-20010904/DTD/svg10.dtd">
<svg version="1.0" xmlns="http://www.w3.org/2000/svg"
 width="777.000000pt" height="727.000000pt" viewBox="0 0 777.000000 727.000000"
 preserveAspectRatio="xMidYMid meet">

<g transform="translate(0.000000,727.000000) scale(0.100000,-0.100000)"
fill="#000000" stroke="none">
<path d="M0 3635 l0 -3635 3885 0 3885 0 0 3635 0 3635 -3885 0 -3885 0 0
-3635z m3235 3386 c122 -6 148 -11 202 -35 100 -46 159 -138 171 -269 4 -40 6
-312 4 -604 l-3 -533 -25 0 c-38 0 -96 -28 -134 -65 l-35 -34 -150 147 c-82
81 -201 196 -264 255 l-114 107 23 52 c83 193 -26 439 -230 520 -75 30 -212
30 -286 1 -101 -40 -193 -123 -239 -218 -75 -152 -67 -272 25 -404 47 -67 93
-106 170 -147 50 -26 64 -29 160 -29 97 0 110 2 172 32 36 17 76 41 88 53 12
12 25 19 28 15 222 -222 493 -485 501 -485 17 0 13 -26 -9 -67 -11 -21 -20
-50 -20 -66 l0 -27 -747 2 -748 3 -40 26 c-22 15 -49 37 -60 50 l-20 24 25
-21 c56 -47 89 -56 250 -65 199 -12 1028 -2 1097 13 36 8 50 15 46 24 -3 10 3
14 21 14 14 0 26 5 26 11 0 6 7 9 14 6 20 -8 96 25 96 41 0 7 10 16 23 21 21
8 20 9 -10 15 -20 5 -33 15 -37 29 -7 25 -46 56 -77 62 -12 2 -27 11 -33 20
-25 34 -156 42 -156 9 0 -8 -9 -14 -20 -14 -13 0 -20 7 -20 20 0 17 7 20 43
21 23 1 32 4 20 6 -13 2 -23 11 -23 19 0 8 -9 14 -20 14 -13 0 -20 7 -20 20 0
16 -7 20 -30 20 -23 0 -30 5 -30 19 0 23 -55 67 -65 51 -3 -5 1 -10 9 -10 11
0 16 -9 16 -30 0 -27 -3 -30 -30 -30 -28 0 -30 -2 -30 -40 l0 -40 -40 0 -40 0
0 40 0 40 -40 0 c-30 0 -40 4 -40 16 0 13 -7 15 -37 9 -21 -4 -39 -11 -41 -16
-2 -5 -12 -9 -23 -9 -15 0 -19 7 -19 40 0 37 2 40 39 50 30 8 39 15 38 30 -1
16 -9 20 -34 20 -20 0 -33 -5 -33 -12 0 -10 -2 -10 -8 -1 -4 6 -21 14 -37 18
-17 4 -37 9 -45 12 -8 4 -19 7 -25 8 -21 3 -50 19 -58 31 -4 7 -13 11 -21 8
-7 -3 -32 6 -56 20 -24 14 -47 23 -52 20 -4 -3 -8 -1 -8 5 0 10 -104 61 -126
61 -8 0 -14 -7 -14 -15 0 -12 -20 -15 -120 -15 -113 0 -120 -1 -120 -20 0 -17
-7 -20 -40 -20 -33 0 -40 -3 -40 -20 0 -13 -7 -20 -20 -20 -13 0 -20 -7 -20
-20 0 -11 -4 -20 -10 -20 -5 0 -10 9 -10 20 0 11 -4 20 -10 20 -6 0 -10 -27
-10 -60 0 -44 -4 -60 -14 -60 -22 0 -30 -132 -12 -197 8 -28 11 -54 8 -57 -3
-3 -1 -6 4 -6 5 0 11 -15 12 -32 1 -31 0 -30 -21 17 -22 49 -22 58 -25 574
l-3 525 26 90 c14 50 40 115 58 145 50 84 145 175 227 216 125 63 130 63 700
64 283 0 578 -4 655 -8z m2136 -1 c30 -5 95 -30 146 -55 110 -54 194 -134 246
-233 70 -133 70 -135 74 -657 5 -501 -1 -596 -39 -674 -12 -25 -47 -71 -78
-103 -90 -92 -50 -88 -872 -88 -629 0 -708 2 -708 15 0 9 -9 43 -21 77 -19 59
-20 61 -1 74 17 11 176 172 377 382 105 109 108 110 152 76 69 -52 227 -84
317 -64 126 28 244 123 300 240 29 61 31 73 31 175 0 102 -3 115 -30 170 -76
155 -264 261 -417 235 -118 -20 -182 -52 -260 -131 -103 -102 -146 -238 -116
-366 9 -37 19 -78 23 -89 6 -18 -32 -60 -244 -273 l-252 -251 -33 34 c-32 31
-135 76 -175 76 -14 0 -16 63 -16 593 l1 592 29 55 c53 97 138 167 232 189 53
13 1267 13 1334 1z m-392 -585 c61 -21 102 -56 141 -121 31 -52 35 -66 34
-124 -1 -81 -20 -126 -79 -189 -64 -69 -123 -95 -200 -89 -150 13 -257 125
-258 272 0 73 18 119 69 176 75 82 189 112 293 75z m-2343 -14 c46 -21 84 -65
113 -132 49 -114 32 -211 -52 -295 -78 -78 -175 -96 -272 -50 -105 49 -155
125 -155 236 0 116 45 185 150 234 68 32 155 35 216 7z m1200 -1014 c96 -49
134 -114 134 -233 0 -167 -86 -270 -237 -282 -164 -13 -289 94 -301 258 -8
113 48 203 161 260 55 28 69 31 127 27 43 -3 82 -13 116 -30z m-1178 -347
l612 0 0 -23 c0 -13 11 -38 25 -56 17 -24 22 -38 15 -50 -5 -9 -124 -130 -265
-270 -236 -235 -256 -253 -273 -239 -32 29 -127 66 -182 73 -226 27 -442 -138
-481 -367 -13 -80 -2 -142 41 -228 56 -111 142 -185 258 -220 144 -45 297 -5
409 106 111 111 153 315 93 450 -11 26 -19 48 -18 50 2 2 123 124 270 271
l267 268 38 -26 c21 -14 62 -35 92 -45 l54 -19 -2 -625 -2 -625 -23 -51 c-34
-74 -88 -129 -164 -166 l-67 -33 -325 -8 c-442 -11 -997 3 -1065 27 -78 28
-188 101 -247 164 -66 72 -102 138 -130 239 -20 71 -22 104 -23 378 0 165 2
406 5 535 l5 235 34 73 c69 146 166 197 356 186 44 -2 356 -4 693 -4z m2987
-25 c59 -29 123 -98 152 -163 36 -81 45 -256 41 -754 -4 -441 -6 -453 -69
-585 -53 -110 -191 -228 -328 -277 -54 -20 -80 -21 -676 -24 -665 -4 -718 -1
-809 45 -66 34 -131 103 -155 167 -18 50 -20 82 -22 666 l-2 613 57 18 c32 10
76 31 97 48 21 17 41 31 44 31 4 0 111 -103 238 -228 128 -126 249 -244 270
-263 l38 -34 -20 -48 c-110 -256 48 -537 329 -588 314 -56 581 313 435 601
-29 57 -96 137 -139 166 -76 50 -145 69 -256 69 -112 -1 -155 -14 -224 -72
-28 -23 -30 -23 -38 -6 -5 10 -124 131 -264 268 l-255 250 26 49 c14 27 25 55
25 63 0 11 121 13 733 11 706 -3 733 -4 772 -23z m-643 -703 c168 -82 207
-285 82 -431 -55 -64 -104 -86 -194 -86 -116 0 -189 48 -248 160 -20 39 -25
64 -25 115 0 78 17 120 72 182 77 87 206 111 313 60z m-2377 -6 c141 -65 193
-229 119 -372 -37 -73 -83 -109 -162 -129 -57 -15 -67 -15 -116 -1 -67 20
-138 74 -172 132 -22 37 -27 58 -27 112 1 202 189 337 358 258z m4142 -1274
c64 -42 95 -90 101 -156 4 -49 2 -56 -28 -87 -24 -26 -29 -29 -20 -10 13 25
10 164 -3 177 -15 15 -20 -8 -25 -108 -2 -57 -9 -109 -14 -115 -6 -7 -22 -13
-37 -12 -25 0 -25 0 -3 9 19 8 22 16 22 70 0 65 -11 77 -30 31 -22 -55 -52
-44 -83 29 l-15 35 -1 -67 c-1 -60 -3 -68 -20 -68 -11 0 -22 4 -25 8 -3 5 -2
57 1 115 6 102 7 107 28 107 18 0 29 -13 49 -55 14 -30 28 -55 30 -55 5 0 76
120 76 130 0 14 -29 20 -97 20 -66 0 -66 0 -110 -47 l-45 -48 5 -73 c5 -83 20
-108 76 -118 20 -4 50 -13 66 -20 l30 -13 -44 -1 c-52 0 -125 33 -151 70 -46
65 -32 168 31 231 67 67 153 75 236 21z m-5960 -185 c14 -9 158 -321 227 -492
32 -77 90 -219 131 -315 40 -96 79 -190 86 -208 6 -18 14 -30 17 -27 3 3 16
38 28 78 26 88 86 246 149 392 53 124 109 262 165 410 21 55 44 114 51 132
l13 31 130 4 c72 2 134 3 138 1 4 -2 -21 -61 -54 -131 -33 -70 -75 -163 -93
-207 -18 -44 -59 -138 -90 -210 -54 -122 -90 -205 -245 -565 -34 -80 -71 -169
-82 -197 l-19 -53 -93 0 -92 0 -33 73 c-18 39 -66 149 -106 242 -40 94 -105
240 -145 325 -39 85 -96 211 -127 280 -30 69 -83 186 -118 260 -35 74 -67 148
-71 163 l-7 28 115 -4 c64 -2 120 -7 125 -10z m3709 -21 c38 -15 101 -50 140
-79 59 -45 75 -63 109 -131 l40 -79 0 -126 c-1 -160 -21 -218 -104 -302 -110
-109 -255 -156 -511 -166 l-165 -6 3 -223 4 -224 -111 0 -111 0 0 53 c-1 28
-3 243 -6 477 -4 234 -3 516 1 627 l7 202 107 4 c58 2 201 3 316 2 202 -2 213
-3 281 -29z m-2000 -397 c56 -17 77 -31 125 -78 36 -36 61 -72 69 -97 10 -33
37 -764 28 -768 -2 -1 -48 1 -103 4 l-100 5 -3 43 c-2 23 -7 42 -11 42 -4 0
-22 -15 -40 -34 -84 -87 -278 -119 -397 -67 -98 44 -154 124 -162 233 -11 162
56 246 243 304 47 14 93 19 207 19 l148 0 0 60 c0 80 -24 118 -93 150 -99 47
-270 26 -343 -42 -15 -13 -27 -23 -28 -21 -2 2 -11 23 -20 48 -10 24 -31 64
-46 87 -16 23 -26 44 -22 47 33 20 214 80 272 90 53 9 211 -5 276 -25z m1050
12 c5 -6 7 -52 4 -108 l-5 -98 -75 -5 c-86 -6 -138 -28 -190 -80 -61 -61 -70
-93 -82 -278 -5 -92 -8 -210 -6 -262 7 -140 14 -131 -105 -128 l-102 3 2 469
c1 258 5 471 8 474 3 3 49 6 103 6 l97 1 -4 -87 c-2 -49 1 -88 5 -87 5 0 23
21 39 46 39 60 91 101 157 124 57 20 138 25 154 10z m2082 0 c12 -7 11 -14 -3
-41 -14 -27 -44 -144 -45 -174 0 -4 -20 -5 -44 -2 -133 20 -251 -89 -281 -261
-9 -49 -14 -152 -15 -275 l0 -198 -100 0 -100 0 0 475 0 475 105 0 105 0 0
-80 c0 -84 7 -97 31 -54 22 42 96 102 153 123 53 21 170 28 194 12z m747 -6
c155 -40 270 -128 331 -250 30 -61 37 -87 41 -157 14 -243 -112 -447 -327
-529 -133 -50 -263 -45 -388 16 -184 91 -291 284 -280 506 4 79 8 97 46 173
46 92 93 142 180 189 112 61 278 82 397 52z m-5175 -1345 c-1 -99 -5 -180 -9
-180 -5 0 -15 10 -23 22 -14 21 -16 21 -38 5 -14 -9 -33 -17 -43 -17 -27 0
-83 46 -97 80 -16 39 -7 71 32 116 32 36 48 39 108 23 12 -3 14 7 12 58 -4 61
-4 62 25 66 15 2 29 5 31 6 1 0 2 -80 2 -179z m1106 168 c4 -6 8 -73 10 -147
1 -75 6 -148 9 -163 6 -22 4 -28 -9 -28 -9 0 -16 3 -16 8 0 4 -4 13 -9 21 -7
12 -14 10 -36 -8 -44 -34 -78 -28 -120 21 -57 67 -57 101 3 165 20 22 29 25
73 21 l49 -5 0 63 c0 57 2 64 19 64 11 0 23 -5 27 -12z m2746 -28 c4 -19 5
-53 2 -75 l-6 -40 24 23 c36 33 65 28 110 -18 51 -54 52 -93 2 -158 -47 -62
-57 -66 -84 -37 -29 30 -36 31 -43 4 -5 -17 -9 -19 -26 -9 -18 9 -21 20 -21
83 0 40 -3 116 -7 170 l-6 99 24 -4 c17 -2 25 -12 31 -38z m-3544 -143 c1 -94
-1 -167 -7 -167 -25 0 -32 35 -34 179 -2 83 -1 154 2 157 3 2 12 3 21 2 13 -3
15 -29 18 -171z m1779 -2 c-1 -96 -5 -175 -8 -175 -4 0 -13 10 -21 21 -12 19
-17 20 -34 9 -27 -17 -64 -7 -104 27 -59 49 -58 89 5 157 23 25 31 28 70 23
l44 -4 -6 58 -6 59 31 0 31 0 -2 -175z m980 164 c18 -18 -78 -301 -110 -321
-34 -22 -34 -22 -123 192 -49 118 -52 130 -26 130 28 0 46 -27 82 -122 18 -48
38 -92 45 -98 14 -11 28 20 70 150 25 77 39 92 62 69z m457 -2 c22 -16 17 -50
-7 -55 -37 -7 -67 7 -67 32 0 35 40 47 74 23z m576 -157 c0 -159 -1 -170 -19
-170 -17 0 -19 12 -24 143 -4 78 -9 154 -13 170 -6 25 -4 27 25 27 l31 0 0
-170z m852 153 c1 -10 2 -56 3 -103 0 -47 4 -115 9 -152 7 -59 6 -68 -7 -68
-28 0 -36 35 -43 189 -7 150 -7 151 14 151 14 0 23 -7 24 -17z m651 -5 c8 -12
7 -21 -2 -32 -19 -23 -58 -20 -66 4 -14 43 44 67 68 28z m-6341 -5 c8 -10 34
-51 57 -92 50 -85 49 -85 108 24 32 58 43 70 63 70 19 0 25 -5 24 -22 0 -13
-1 -84 -2 -158 -2 -128 -3 -135 -22 -135 -18 0 -20 7 -21 58 -1 31 -1 74 1 96
3 50 -11 45 -52 -19 -18 -27 -40 -51 -49 -53 -10 -2 -28 15 -48 47 -18 27 -39
55 -48 63 -15 12 -16 9 -10 -26 3 -22 4 -66 0 -98 -5 -53 -8 -59 -27 -56 -20
3 -21 9 -24 161 -2 148 -1 157 16 157 10 0 26 -8 34 -17z m5365 5 c25 -9 33
-17 31 -33 -4 -24 -33 -31 -63 -15 -35 19 -70 9 -73 -20 -3 -30 19 -55 82 -92
40 -24 46 -32 46 -62 0 -26 -8 -41 -35 -65 -39 -34 -60 -38 -108 -18 -41 18
-58 38 -47 57 7 11 15 12 50 1 47 -14 76 -8 90 19 9 16 2 23 -51 52 -89 47
-110 110 -53 159 36 31 77 36 131 17z m-4007 -142 c0 -157 -3 -176 -30 -176
-25 0 -31 50 -23 197 6 121 7 123 30 123 l23 0 0 -144z m2000 108 c6 -14 9
-34 8 -43 -2 -12 4 -15 25 -13 23 3 27 0 27 -22 0 -22 -4 -26 -30 -26 l-31 0
3 -57 c3 -55 4 -58 31 -61 21 -3 27 -9 27 -27 0 -29 -30 -41 -62 -24 -34 18
-38 28 -38 101 0 53 -4 69 -17 77 -15 8 -16 12 -5 22 6 7 12 29 12 49 0 20 3
40 7 43 14 15 34 6 43 -19z m2840 -14 c0 -11 9 -24 20 -30 11 -6 20 -20 20
-31 0 -12 -8 -23 -20 -26 -16 -4 -20 -14 -20 -50 0 -37 5 -50 31 -74 36 -33
33 -59 -6 -59 -41 0 -67 51 -63 125 l3 60 -70 -3 c-38 -2 -76 -9 -82 -14 -7
-6 -13 -25 -13 -44 0 -40 29 -64 78 -64 26 0 33 -4 30 -17 -2 -10 -15 -24 -30
-32 -24 -14 -29 -13 -67 12 -23 15 -47 39 -53 52 -16 35 -2 87 34 123 29 31
35 32 92 30 l61 -3 18 38 c19 38 37 41 37 7z m-4623 -62 c11 -13 20 -44 24
-91 7 -78 -2 -117 -26 -117 -12 0 -15 15 -15 84 0 89 -4 96 -53 96 -42 0 -57
-27 -57 -107 0 -57 -3 -73 -15 -73 -8 0 -19 9 -24 19 -13 24 -2 178 13 190 15
12 97 28 118 23 9 -2 25 -13 35 -24z m480 -10 c26 -25 43 -51 43 -65 0 -22 -3
-23 -75 -23 -83 0 -98 -14 -50 -46 24 -16 29 -16 67 0 50 19 56 15 34 -19 -18
-28 -53 -45 -91 -45 -25 0 -74 49 -100 100 -14 26 -14 33 -1 58 8 15 25 37 38
48 50 46 82 44 135 -8z m938 20 c27 -21 61 -85 51 -96 -4 -3 -31 -7 -62 -10
-37 -3 -58 -10 -61 -20 -9 -23 24 -41 63 -35 27 4 34 2 34 -10 0 -19 -37 -47
-62 -47 -9 0 -33 15 -52 34 -47 44 -49 92 -6 159 33 53 53 58 95 25z m1446 12
c20 0 43 -56 54 -133 14 -90 5 -120 -22 -79 -16 22 -16 23 -37 4 -37 -35 -62
-36 -95 -5 -17 15 -33 40 -37 55 -6 26 -2 30 47 53 30 14 60 25 67 25 6 0 12
9 12 21 0 18 -5 20 -47 18 -38 -3 -49 0 -51 13 -2 12 6 19 25 24 15 3 33 7 38
9 6 2 16 2 23 -1 8 -2 18 -4 23 -4z m612 -40 c54 -56 50 -70 -20 -71 -93 -1
-107 -6 -97 -32 9 -23 33 -29 71 -16 49 16 62 0 34 -40 -18 -25 -29 -31 -60
-31 -41 0 -58 13 -85 67 -23 47 -20 87 11 123 50 60 87 60 146 0z m838 18 c31
-35 45 -70 34 -87 -3 -6 -35 -11 -71 -11 -49 0 -64 -3 -64 -14 0 -22 31 -48
49 -41 42 17 71 17 71 2 0 -19 -46 -57 -70 -57 -9 0 -35 17 -58 38 -33 30 -42
46 -42 71 0 40 22 83 56 110 37 29 60 26 95 -11z m-5448 11 c61 -31 78 -123
32 -173 -52 -56 -98 -54 -153 8 -44 50 -42 84 6 136 41 42 73 50 115 29z m491
-16 c25 -25 44 -69 34 -79 -3 -2 -33 -9 -67 -15 -39 -7 -61 -16 -61 -25 0 -21
37 -35 75 -28 42 8 46 -6 9 -35 -36 -29 -57 -26 -98 10 -59 51 -58 132 2 179
35 28 74 25 106 -7z m1364 5 c26 -28 47 -105 39 -140 -9 -34 -67 -62 -113 -54
l-33 7 6 -51 6 -50 -32 0 c-18 0 -31 5 -31 13 0 6 -2 74 -4 151 l-4 138 27 -5
c15 -3 33 -2 41 4 27 16 76 10 98 -13z m110 -19 c5 -68 11 -79 40 -79 l27 -1
-28 -15 c-23 -12 -26 -18 -16 -30 22 -27 79 -11 79 23 0 7 -7 13 -16 13 -12 0
-14 5 -8 18 4 9 9 34 12 55 3 32 7 37 23 32 12 -4 21 -1 25 9 3 9 14 16 24 16
21 0 30 -36 30 -121 0 -33 5 -68 12 -79 16 -25 4 -36 -26 -22 -21 9 -26 21
-32 74 l-8 63 -8 -59 c-4 -32 -13 -65 -19 -72 -24 -29 -92 -10 -134 36 -32 36
-26 188 8 178 6 -3 13 -20 15 -39z m826 10 c14 -17 26 -41 26 -53 0 -13 3 -51
6 -85 6 -57 6 -61 -14 -61 -19 0 -21 8 -28 81 -6 68 -10 83 -29 95 -48 32 -75
-8 -75 -112 0 -57 -2 -65 -17 -62 -15 3 -19 16 -21 78 -4 104 4 143 29 137 10
-3 22 -1 25 4 3 5 20 9 39 9 25 0 40 -8 59 -31z m730 0 c14 -17 26 -34 26 -37
0 -4 5 -38 10 -75 12 -81 1 -117 -22 -73 l-14 28 -32 -27 c-35 -29 -53 -28
-96 6 -30 23 -34 60 -10 80 9 8 35 21 58 30 57 23 61 49 7 49 -42 0 -57 11
-47 35 4 10 20 15 50 15 37 0 48 -5 70 -31z m204 9 c2 -13 -8 -22 -37 -34
l-41 -16 0 -74 c0 -57 -4 -76 -15 -80 -8 -4 -21 -1 -29 5 -16 14 -10 139 9
187 12 30 16 32 61 30 38 -1 50 -5 52 -18z m1413 -7 c36 -36 39 -76 7 -85 -13
-3 -42 -6 -65 -6 -48 0 -56 -15 -22 -46 16 -15 24 -16 39 -6 26 16 50 15 50
-2 0 -19 -47 -56 -71 -56 -27 0 -76 47 -89 85 -14 42 -7 66 32 111 39 44 78
46 119 5z m750 -82 c3 -57 2 -108 -3 -113 -4 -6 -16 -2 -28 9 -17 15 -20 30
-20 105 0 84 10 115 35 107 5 -2 13 -50 16 -108z m203 71 c42 -47 46 -79 14
-126 -32 -47 -72 -68 -100 -53 -87 45 -104 118 -42 182 49 50 80 50 128 -3z
m104 28 c9 -9 15 -9 24 0 20 20 85 15 108 -8 16 -16 20 -33 20 -84 0 -94 -8
-125 -31 -119 -17 5 -19 15 -19 88 0 74 -2 84 -20 90 -10 3 -28 1 -40 -5 -18
-9 -20 -20 -20 -90 l0 -80 -30 0 -31 0 5 108 c2 59 5 108 5 110 2 6 18 1 29
-10z m-2388 -13 c15 -18 14 -173 -1 -191 -6 -8 -18 -14 -25 -14 -11 0 -14 22
-14 103 0 57 3 107 7 110 10 11 19 8 33 -8z m-2995 -85 c0 -11 -15 -16 -64
-18 -75 -4 -93 1 -85 23 9 22 149 18 149 -5z m3045 -101 c0 -5 -4 -9 -10 -9
-5 0 -10 7 -10 16 0 8 5 12 10 9 6 -3 10 -10 10 -16z m553 -301 c-9 -136 -9
-143 1 -190 7 -34 6 -38 -12 -38 -12 0 -24 6 -29 13 -4 6 -8 83 -8 169 l0 158
28 0 28 0 -8 -112z m-4018 92 c26 -10 26 -11 19 -82 l-7 -73 22 28 c29 35 50
34 87 -4 27 -28 29 -37 33 -121 3 -83 2 -90 -15 -86 -16 3 -19 14 -22 80 -3
88 -14 104 -66 94 l-35 -7 -3 -82 c-3 -74 -5 -82 -23 -82 -19 0 -20 8 -23 173
-1 94 0 172 2 172 3 0 17 -4 31 -10z m1671 -19 c11 -5 29 -26 38 -46 18 -36
18 -38 -3 -66 -27 -37 -27 -41 9 -62 17 -10 30 -24 30 -32 0 -7 -18 -32 -39
-54 l-39 -41 -80 0 c-64 0 -81 3 -86 16 -3 9 -6 82 -6 163 l0 147 78 -8 c42
-5 86 -13 98 -17z m930 -137 c-3 -96 -9 -171 -15 -177 -8 -8 -18 -4 -33 10
-23 21 -23 21 -46 2 -24 -19 -35 -17 -72 13 -51 42 -64 111 -31 161 38 58 79
68 124 29 16 -14 17 -11 17 50 0 72 3 78 37 78 l23 0 -4 -166z m868 140 c9
-24 -5 -44 -30 -44 -28 0 -54 48 -34 60 17 10 58 0 64 -16z m306 -33 l0 -60
32 9 c61 18 128 -37 128 -106 0 -32 -41 -96 -76 -118 -21 -15 -26 -14 -60 6
-21 12 -39 18 -41 13 -7 -20 -22 -39 -27 -35 -2 3 -6 83 -8 178 l-3 172 28 0
c26 0 27 -1 27 -59z m1118 22 c3 -28 0 -33 -17 -33 -23 0 -45 34 -37 56 4 9
15 14 28 12 18 -2 24 -11 26 -35z m540 11 c2 -12 -4 -29 -14 -38 -15 -16 -18
-16 -35 0 -22 20 -25 50 -6 58 25 10 52 1 55 -20z m-5980 4 c17 -17 15 -23
-13 -36 -33 -15 -55 -5 -55 24 0 20 5 24 28 24 15 0 33 -5 40 -12z m1280 -14
c30 -20 56 -76 49 -105 -4 -13 -22 -35 -42 -48 -19 -13 -35 -28 -35 -34 0 -5
16 -27 36 -49 39 -43 40 -62 3 -66 -20 -2 -29 6 -49 44 -23 42 -51 64 -85 64
-10 0 -12 -14 -8 -60 6 -61 4 -64 -34 -54 -23 6 -23 9 -23 168 l0 161 83 -3
c49 -2 91 -10 105 -18z m376 -41 c18 -215 18 -263 3 -263 -29 0 -47 41 -47
105 0 54 -10 130 -25 203 -5 19 -1 22 29 22 l34 0 6 -67z m1713 -28 c62 -159
52 -147 77 -90 13 28 33 81 45 118 21 62 25 67 52 67 16 0 29 -1 29 -3 0 -8
-63 -163 -69 -172 -5 -5 -20 -41 -34 -80 -13 -38 -31 -71 -39 -73 -16 -3 -42
50 -102 205 -42 108 -44 126 -15 121 16 -2 29 -24 56 -93z m1772 80 c35 -17
53 -60 49 -111 -4 -50 -50 -84 -114 -84 l-44 0 0 -55 c0 -52 -1 -55 -25 -55
l-25 0 0 160 0 160 65 0 c38 0 78 -6 94 -15z m-4718 -54 c7 -24 19 -41 30 -44
11 -3 19 -14 19 -25 0 -16 -6 -20 -32 -18 -21 0 -33 -4 -32 -11 1 -7 2 -31 3
-53 1 -37 3 -40 31 -40 27 0 30 -3 30 -30 0 -43 -33 -59 -69 -32 -23 17 -26
27 -29 90 -2 59 -6 74 -22 82 -26 14 -26 40 0 40 17 0 20 7 20 40 0 33 3 40
20 40 14 0 22 -11 31 -39z m5667 -9 c3 -37 6 -42 28 -42 14 0 32 7 41 15 20
21 29 13 67 -63 38 -74 29 -77 90 31 20 35 33 47 51 47 29 0 41 -16 21 -27
-17 -10 -112 -193 -128 -246 -8 -26 -21 -43 -41 -53 -33 -18 -77 -11 -77 11 0
15 6 21 53 56 36 27 35 63 -4 142 -17 34 -33 63 -34 65 -2 2 -23 -3 -47 -12
-42 -14 -43 -15 -41 -57 2 -45 14 -59 50 -59 28 0 38 -17 23 -35 -20 -24 -77
-19 -94 8 -20 30 -25 212 -7 245 20 37 45 24 49 -26z m-4237 -58 c26 -46 29
-58 18 -65 -20 -13 -80 -29 -106 -29 -13 0 -23 -4 -23 -8 0 -20 28 -32 72 -32
32 0 48 -4 48 -13 0 -23 -31 -57 -52 -57 -45 0 -118 80 -118 130 0 56 63 130
112 130 10 0 30 -23 49 -56z m3803 14 c35 -32 48 -53 53 -80 5 -34 2 -40 -45
-87 -28 -28 -59 -51 -70 -51 -21 0 -99 73 -108 102 -10 31 4 83 29 105 21 20
75 52 89 53 3 0 27 -19 52 -42z m-5768 19 c3 -8 -15 -56 -39 -108 -41 -88 -70
-129 -83 -116 -14 14 -103 211 -98 219 12 19 45 7 55 -19 6 -16 22 -48 36 -71
23 -40 26 -42 37 -25 7 10 21 38 30 63 26 67 50 88 62 57z m253 3 c27 -14 39
-54 45 -152 6 -90 1 -102 -29 -71 -14 14 -22 15 -51 4 -36 -13 -56 -7 -87 27
-14 15 -16 25 -9 39 16 30 45 51 82 60 25 7 35 15 35 29 0 16 -8 20 -47 22
-49 3 -60 16 -36 40 14 14 72 16 97 2z m1271 -80 c13 -90 28 -110 63 -87 20
13 26 27 31 78 8 68 21 103 37 94 5 -4 8 -59 8 -123 -1 -64 -3 -109 -6 -99 -6
23 -34 22 -66 -3 -25 -20 -28 -20 -56 -5 -38 19 -57 54 -66 121 -5 39 -3 60
10 84 22 43 32 30 45 -60z m1043 58 c16 -22 22 -48 25 -118 3 -49 2 -90 -2
-90 -3 0 -15 5 -26 12 -15 10 -24 9 -44 -1 -20 -11 -31 -11 -54 -2 -73 31 -62
105 20 131 35 11 48 20 48 34 0 16 -6 18 -45 14 -37 -5 -45 -3 -45 11 0 28 23
42 64 39 29 -2 44 -10 59 -30z m193 22 c8 0 14 -9 14 -20 0 -17 -7 -20 -45
-20 -37 0 -45 -3 -45 -18 0 -13 12 -22 38 -30 81 -25 93 -85 25 -125 -28 -16
-38 -17 -68 -7 -31 10 -64 45 -53 56 3 2 20 -1 39 -6 51 -15 69 -13 69 10 0
13 -14 25 -45 39 -55 24 -63 41 -38 83 18 31 54 50 81 42 8 -2 20 -4 28 -4z
m216 -17 c36 -40 52 -73 40 -85 -6 -6 -40 -13 -76 -15 -72 -6 -84 -20 -42 -48
17 -11 35 -14 59 -10 20 4 37 2 41 -3 9 -14 -42 -52 -70 -52 -45 0 -114 79
-114 131 0 30 81 109 112 109 14 0 35 -12 50 -27z m850 -8 c19 -33 36 -181 24
-212 -7 -16 -9 -16 -25 6 -19 25 -28 24 -68 -5 -20 -15 -23 -14 -53 17 -23 25
-30 41 -28 63 3 26 11 35 58 58 66 32 73 54 15 50 -47 -3 -68 8 -59 31 7 20
27 26 79 24 32 -2 42 -7 57 -32z m483 15 c16 -18 33 -115 34 -202 1 -30 -25
-40 -35 -13 -8 19 -23 19 -44 0 -15 -13 -21 -13 -58 5 -28 14 -44 29 -48 46
-11 43 8 67 67 84 37 11 55 22 57 34 4 17 -2 18 -52 14 -59 -5 -68 2 -39 34
23 25 94 25 118 -2z m585 -11 c34 -38 47 -79 28 -90 -7 -5 -41 -9 -75 -9 -47
0 -63 -4 -63 -14 0 -23 29 -39 70 -38 47 2 54 -18 15 -44 -44 -29 -108 4 -145
74 -15 31 0 76 42 119 43 45 88 45 128 2z m-3886 -5 c14 -15 30 -41 34 -58 l8
-31 -50 -8 c-28 -4 -63 -6 -78 -4 -34 4 -35 -5 -6 -33 24 -22 48 -26 65 -9 16
16 33 2 33 -25 0 -33 -49 -53 -89 -36 -33 13 -81 79 -81 110 0 22 21 61 54 98
28 31 76 29 110 -4z m2951 9 c6 -17 7 -17 20 1 18 24 48 14 43 -16 -2 -14 -12
-24 -28 -28 -37 -9 -51 -45 -44 -112 7 -58 6 -58 -20 -58 l-26 0 0 108 c0 60
3 112 7 115 13 13 41 7 48 -10z m143 -112 c2 -96 0 -122 -10 -119 -17 6 -25
48 -27 140 -1 82 5 111 23 105 7 -2 12 -46 14 -126z m1283 108 l11 -21 14 21
c21 30 54 28 54 -3 0 -17 -7 -26 -25 -30 -14 -4 -30 -4 -35 -1 -6 4 -10 -29
-10 -83 0 -90 -5 -102 -41 -102 -5 0 -9 54 -9 120 0 99 3 120 15 120 8 0 19
-9 26 -21z m167 -97 c2 -106 2 -112 -17 -112 -18 0 -20 8 -23 99 -4 119 -1
133 20 129 15 -3 17 -20 20 -116z m450 96 c4 -19 -44 -48 -77 -48 -20 0 -20
-4 -14 -74 5 -69 4 -75 -16 -86 -13 -6 -24 -10 -26 -8 -1 2 -6 42 -9 91 -4 48
-9 94 -12 102 -14 34 2 43 78 41 60 -1 73 -4 76 -18z m-5930 0 c13 -13 17
-163 6 -192 -7 -19 -44 -22 -44 -3 0 6 -1 50 -2 97 -3 103 9 129 40 98z m6011
-70 c-2 -112 -9 -143 -34 -143 -19 0 -20 6 -16 105 1 58 5 108 8 113 2 4 13 7
24 7 17 0 19 -7 18 -82z m-3951 -32 c4 -28 3 -29 -38 -23 -43 6 -90 30 -90 48
0 6 25 9 63 7 60 -3 62 -4 65 -32z"/>
<path d="M1860 5950 c0 -13 7 -20 20 -20 13 0 20 7 20 20 0 13 -7 20 -20 20
-13 0 -20 -7 -20 -20z"/>
<path d="M4024 2605 c3 -26 6 -135 6 -241 l0 -194 124 0 c238 0 324 38 384
168 19 43 23 65 20 112 -6 81 -40 129 -115 167 -56 27 -63 28 -242 31 l-184 4
7 -47z"/>
<path d="M2257 1911 c-115 -24 -164 -156 -87 -233 26 -25 35 -28 96 -28 90 0
138 16 192 65 44 40 46 44 50 109 2 37 0 72 -5 77 -13 13 -198 20 -246 10z"/>
<path d="M6192 2261 c-80 -21 -158 -100 -182 -186 -30 -108 13 -262 94 -333
41 -36 127 -57 191 -47 68 10 146 54 176 100 75 116 78 289 7 386 -34 46 -109
80 -185 84 -38 2 -83 0 -101 -4z"/>
<path d="M1066 1108 c-48 -68 27 -145 84 -88 11 11 20 33 20 51 0 25 -6 32
-35 45 -45 19 -51 18 -69 -8z"/>
<path d="M2181 1111 c-27 -27 -27 -51 0 -85 38 -48 109 -23 109 39 0 54 -71
84 -109 46z"/>
<path d="M5107 1114 c-38 -20 -47 -62 -17 -86 30 -24 86 -24 99 1 14 26 -4 75
-32 88 -17 8 -30 7 -50 -3z"/>
<path d="M3166 1111 c-26 -29 -18 -82 15 -100 24 -13 29 -13 53 2 20 13 26 26
26 53 0 31 -4 37 -35 50 -43 17 -39 18 -59 -5z"/>
<path d="M2442 1118 c-26 -26 -14 -36 28 -26 46 12 55 38 12 38 -15 0 -33 -5
-40 -12z"/>
<path d="M3416 1116 c-23 -36 -20 -42 20 -38 31 4 35 7 32 31 -4 34 -31 38
-52 7z"/>
<path d="M4842 1041 c-21 -13 -10 -46 16 -49 28 -4 72 23 72 43 0 17 -65 21
-88 6z"/>
<path d="M5420 1111 c-15 -30 -14 -31 35 -31 49 0 55 8 27 33 -25 22 -49 21
-62 -2z"/>
<path d="M6289 1104 l-24 -25 40 3 c33 2 41 7 43 26 5 31 -28 29 -59 -4z"/>
<path d="M849 1115 c-35 -19 -42 -40 -24 -75 20 -38 43 -51 71 -38 35 16 49
51 34 87 -7 17 -16 31 -20 31 -5 0 -14 2 -22 5 -7 2 -25 -2 -39 -10z"/>
<path d="M1365 1130 c-11 -4 -29 -17 -39 -29 -19 -21 -19 -21 2 -21 33 0 72
18 72 34 0 20 -11 25 -35 16z"/>
<path d="M2683 1108 c-29 -14 -34 -31 -22 -68 10 -26 16 -30 48 -30 20 0 42 5
49 12 18 18 14 63 -6 81 -21 19 -37 20 -69 5z"/>
<path d="M4370 1047 c-14 -7 -26 -23 -28 -35 -3 -17 2 -22 20 -22 32 0 68 27
68 51 0 22 -23 25 -60 6z"/>
<path d="M5986 1116 c-28 -44 -17 -54 41 -38 20 6 21 10 10 31 -17 34 -32 36
-51 7z"/>
<path d="M6927 1113 c-29 -33 -31 -68 -4 -99 l24 -28 32 31 c35 36 40 72 13
96 -24 22 -45 21 -65 0z"/>
<path d="M2870 655 l0 -36 48 3 c45 3 47 4 47 33 0 29 -2 30 -47 33 l-48 3 0
-36z"/>
<path d="M2870 541 c0 -50 9 -61 50 -61 53 0 70 8 70 35 0 33 -31 55 -78 55
-40 0 -42 -2 -42 -29z"/>
<path d="M3757 592 c-20 -22 -22 -73 -5 -90 15 -15 63 -16 89 -2 27 15 24 47
-10 81 -34 34 -51 36 -74 11z"/>
<path d="M5108 599 c-13 -7 -18 -23 -18 -54 0 -47 1 -49 42 -59 42 -10 70 23
66 77 -3 40 -5 42 -38 44 -19 2 -43 -2 -52 -8z"/>
<path d="M1910 640 l0 -50 43 0 c30 0 49 6 60 18 38 42 9 82 -59 82 l-44 0 0
-50z"/>
<path d="M5802 643 c3 -46 4 -48 35 -51 46 -5 73 13 73 48 0 35 -23 50 -75 50
l-36 0 3 -47z"/>
<path d="M2529 589 c-19 -19 -18 -39 1 -39 26 0 59 21 54 34 -9 24 -33 27 -55
5z"/>
<path d="M6316 588 c-22 -31 -20 -60 5 -92 25 -31 38 -32 73 -5 50 39 26 119
-37 119 -15 0 -32 -9 -41 -22z"/>
<path d="M842 518 c-17 -17 -15 -47 3 -55 20 -7 55 24 55 49 0 21 -39 25 -58
6z"/>
<path d="M3150 527 c-33 -17 -33 -51 -1 -55 27 -4 51 20 51 50 0 21 -15 23
-50 5z"/>
<path d="M3552 598 c-24 -24 -13 -38 28 -38 26 0 40 5 40 13 0 18 -21 37 -40
37 -9 0 -21 -5 -28 -12z"/>
<path d="M4413 519 c-23 -7 -33 -16 -33 -30 0 -30 25 -33 59 -8 48 35 33 55
-26 38z"/>
<path d="M4892 517 c-31 -7 -42 -15 -40 -26 2 -9 12 -17 23 -19 23 -3 85 32
85 48 0 12 -10 11 -68 -3z"/>
<path d="M5456 588 c-16 -23 -16 -23 25 -26 48 -4 57 2 43 26 -17 26 -50 26
-68 0z"/>
<path d="M1572 588 c-21 -21 -13 -28 33 -28 47 0 58 12 26 30 -26 13 -44 13
-59 -2z"/>
</g>
</svg>
