<svg xmlns="http://www.w3.org/2000/svg" version="1.1" xmlns:xlink="http://www.w3.org/1999/xlink" xmlns:svgjs="http://svgjs.dev/svgjs" width="1380" height="454"><svg id="SvgjsSvg1015" version="1.1" xmlns="http://www.w3.org/2000/svg" xmlns:xlink="http://www.w3.org/1999/xlink" width="1380" height="454"><g id="SvgjsG1014"><path id="SvgjsPath1013" d="M182.457 5.253 C 39.299 16.773,-27.531 183.019,72.688 278.315 C 150.694 352.488,276.972 341.608,337.780 255.474 C 414.446 146.878,319.679 -5.789,182.457 5.253 M225.682 18.961 C 309.925 33.965,369.884 120.806,350.679 200.000 C 347.581 212.775,342.225 228.343,340.222 230.398 C 338.978 231.674,207.773 233.060,202.922 231.849 C 196.405 230.222,200.789 203.459,209.460 191.938 C 216.421 182.690,222.110 180.729,244.931 179.712 C 269.170 178.633,270.850 178.978,272.033 185.280 C 278.852 221.628,327.854 224.421,338.355 189.060 C 350.449 148.335,293.226 124.955,274.605 163.014 L 271.124 170.130 248.910 170.130 C 220.798 170.130,220.148 170.922,268.046 146.809 C 306.571 127.415,306.457 127.456,312.859 130.651 C 324.085 136.251,338.204 123.655,334.352 111.477 C 329.115 94.920,306.781 96.819,303.978 114.059 C 303.209 118.795,303.160 118.826,279.201 130.039 C 253.969 141.847,252.074 142.423,257.353 136.675 C 259.151 134.718,263.277 129.610,266.523 125.325 C 276.074 112.713,278.656 110.390,283.119 110.390 C 307.738 110.390,308.564 70.648,284.003 67.880 C 264.921 65.729,253.012 90.418,266.291 104.598 C 268.860 107.342,262.728 116.610,242.591 140.415 L 237.779 146.104 237.721 136.132 C 237.660 125.836,238.802 123.128,243.883 121.515 C 253.164 118.569,252.465 99.124,242.900 94.178 C 226.816 85.861,212.607 107.298,225.443 120.515 C 229.504 124.697,230.009 125.904,229.353 129.866 C 228.939 132.368,228.594 138.534,228.586 143.567 L 228.571 152.719 214.610 170.623 L 200.649 188.526 200.300 159.181 C 199.894 125.061,199.074 127.998,214.467 108.442 C 235.765 81.383,242.113 74.641,245.909 75.052 C 261.713 76.764,268.776 52.164,254.588 44.827 C 240.373 37.476,228.072 50.138,233.125 66.919 C 233.731 68.931,230.915 73.225,221.180 85.137 C 214.174 93.709,206.562 103.044,204.264 105.881 L 200.087 111.039 200.044 97.159 L 200.000 83.279 206.440 79.774 C 230.740 66.548,222.747 29.081,195.667 29.279 C 176.574 29.419,164.850 45.421,169.968 64.355 C 171.825 71.224,179.443 80.077,184.442 81.175 C 189.883 82.370,190.575 84.657,189.715 98.613 L 188.961 110.863 183.214 103.159 C 180.053 98.921,172.596 89.497,166.642 82.215 L 155.816 68.975 157.388 63.097 C 161.544 47.559,143.368 36.552,132.122 47.798 C 121.647 58.273,128.777 75.172,143.767 75.399 C 149.538 75.487,153.760 79.994,176.124 109.945 L 189.262 127.539 190.034 149.159 C 190.459 161.050,190.391 174.654,189.884 179.389 L 188.961 187.998 176.623 172.573 C 161.824 154.070,161.538 153.434,160.726 137.177 C 160.148 125.612,160.333 124.147,162.613 122.242 C 174.951 111.929,168.921 93.506,153.206 93.506 C 138.957 93.506,133.457 116.700,146.361 122.373 C 151.473 124.621,151.906 125.588,151.928 134.817 C 151.953 144.899,152.551 145.273,135.753 124.723 C 120.137 105.618,121.051 107.666,125.521 101.807 C 138.240 85.131,121.372 61.993,101.914 69.425 C 81.548 77.202,85.316 108.907,106.895 111.339 C 112.574 111.980,113.263 112.563,125.894 127.430 C 133.103 135.915,138.641 142.857,138.200 142.857 C 137.759 142.857,131.421 139.650,124.114 135.731 C 116.807 131.812,106.523 126.830,101.259 124.659 C 89.811 119.938,87.521 118.052,86.476 112.480 C 83.193 94.978,55.844 97.138,55.844 114.900 C 55.844 129.415,68.306 136.678,80.031 128.996 C 82.598 127.314,84.511 127.998,103.426 137.359 C 146.188 158.522,163.635 167.782,162.921 168.937 C 162.516 169.593,152.422 170.130,140.490 170.130 L 118.795 170.130 115.694 163.598 C 99.539 129.571,48.867 142.114,50.912 179.633 C 53.328 223.951,109.372 226.452,118.798 182.662 L 119.595 178.961 141.291 179.479 C 165.230 180.050,169.952 181.233,177.511 188.549 C 184.677 195.484,190.420 213.955,189.378 226.713 L 188.961 231.818 122.727 231.910 C 44.280 232.018,50.063 232.505,46.976 225.525 C -1.358 116.259,101.893 -3.087,225.682 18.961 M203.280 40.280 C 217.020 48.772,212.172 64.813,196.434 62.931 C 182.456 61.261,176.158 55.118,180.117 47.017 C 184.323 38.411,195.157 35.260,203.280 40.280 M252.841 56.661 C 254.144 60.055,251.009 64.935,247.526 64.935 C 244.214 64.935,239.500 58.124,241.063 55.595 C 243.485 51.677,251.197 52.375,252.841 56.661 M147.471 55.920 C 150.063 58.784,149.280 61.520,145.118 64.145 C 141.907 66.170,135.817 59.293,137.702 55.770 C 139.467 52.472,144.419 52.548,147.471 55.920 M115.329 79.855 C 120.932 84.570,121.284 87.656,116.659 91.548 C 109.165 97.854,95.642 91.834,98.762 83.581 C 101.405 76.586,109.328 74.805,115.329 79.855 M287.844 78.520 C 292.255 81.610,294.024 87.354,292.234 92.777 C 287.970 105.699,272.356 103.560,270.510 89.801 C 269.230 80.254,280.162 73.139,287.844 78.520 M159.506 107.616 C 159.872 110.065,159.297 110.390,154.595 110.390 C 147.968 110.390,146.137 107.289,150.619 103.659 C 154.192 100.766,158.787 102.813,159.506 107.616 M240.716 103.914 C 242.469 105.538,240.292 112.879,237.636 114.300 C 236.031 115.159,234.953 115.155,234.418 114.289 C 233.975 113.573,234.670 112.939,235.962 112.881 C 237.469 112.813,236.798 112.113,234.091 110.929 C 229.384 108.871,228.432 104.856,232.143 102.712 C 234.418 101.397,238.639 101.989,240.716 103.914 M74.632 111.640 C 77.742 115.077,76.316 118.182,71.628 118.182 C 66.189 118.182,63.885 115.002,66.905 111.664 C 69.838 108.423,71.715 108.417,74.632 111.640 M324.236 112.476 C 327.310 117.130,322.287 122.167,317.296 119.436 C 312.851 117.003,311.873 113.118,315.109 110.751 C 318.306 108.414,322.016 109.115,324.236 112.476 M95.831 155.706 C 118.571 167.312,110.013 205.195,84.651 205.195 C 58.658 205.195,49.756 165.631,73.377 155.087 C 79.150 152.511,90.165 152.814,95.831 155.706 M315.175 154.628 C 341.535 164.588,330.963 207.998,302.946 204.840 C 279.039 202.145,272.328 166.625,293.725 156.033 C 299.868 152.993,309.224 152.380,315.175 154.628 M141.921 200.052 C 141.540 201.509,139.478 203.606,137.340 204.712 L 133.451 206.723 139.074 212.453 C 145.896 219.404,145.273 219.385,150.344 212.786 L 154.491 207.391 151.272 204.407 C 149.501 202.765,148.052 200.518,148.052 199.413 C 148.052 196.351,142.744 196.904,141.921 200.052 M239.128 202.721 L 234.750 207.993 239.058 212.438 C 244.436 217.986,245.236 217.971,249.809 212.239 C 253.505 207.608,253.508 207.588,250.977 204.772 C 249.581 203.219,248.078 200.925,247.637 199.675 C 246.379 196.113,243.871 197.010,239.128 202.721 M189.610 246.104 L 189.610 250.649 126.048 250.649 L 62.485 250.649 60.500 247.816 C 56.148 241.603,56.606 241.558,125.484 241.558 L 189.610 241.558 189.610 246.104 M331.567 245.570 C 328.022 251.631,329.583 251.510,262.662 250.919 L 200.000 250.367 200.000 245.963 L 200.000 241.558 266.957 241.558 L 333.913 241.558 331.567 245.570 M188.074 261.784 C 189.073 262.099,189.613 263.749,189.373 265.751 L 188.961 269.180 134.846 269.330 L 80.730 269.481 77.361 266.316 C 75.508 264.575,74.456 262.687,75.024 262.119 C 76.865 260.278,182.299 259.966,188.074 261.784 M300.510 261.039 L 320.080 261.039 315.851 265.260 L 311.621 269.481 256.141 269.074 C 198.088 268.648,197.386 268.574,199.467 263.153 C 200.498 260.466,210.841 259.931,249.886 260.548 C 266.966 260.818,289.747 261.039,300.510 261.039 M188.961 283.766 L 188.961 288.961 175.325 289.295 C 167.825 289.478,150.584 289.186,137.013 288.645 L 112.338 287.662 112.338 283.779 C 112.338 278.387,113.991 278.176,154.545 278.390 L 188.961 278.571 188.961 283.766 M280.435 278.789 L 299.182 279.647 294.743 283.352 C 287.812 289.138,283.849 289.595,240.584 289.603 L 200.000 289.610 200.000 284.524 C 200.000 281.670,200.712 279.150,201.623 278.782 C 204.052 277.802,258.970 277.807,280.435 278.789 M262.338 298.587 L 268.182 299.579 260.390 303.171 C 249.181 308.338,215.322 315.484,201.623 315.574 C 200.491 315.581,200.000 313.044,200.000 307.184 L 200.000 298.784 215.260 298.372 C 245.404 297.560,256.587 297.611,262.338 298.587 M40.248 339.935 C 40.210 342.992,57.971 380.871,59.934 381.922 C 65.895 385.112,68.072 382.555,75.863 363.220 C 85.916 338.269,85.797 338.961,80.051 338.961 C 74.411 338.961,73.350 340.411,67.437 356.195 C 65.090 362.460,62.811 367.135,62.373 366.585 C 61.935 366.035,59.624 360.617,57.236 354.545 C 54.849 348.474,52.007 342.484,50.922 341.234 C 48.988 339.007,40.272 337.947,40.248 339.935 M105.668 339.955 C 104.030 341.015,87.013 378.897,87.013 381.483 C 87.013 385.487,95.752 383.278,98.529 378.571 C 102.699 371.504,116.827 371.581,121.023 378.694 C 123.612 383.081,129.098 384.322,132.198 381.222 C 133.268 380.152,117.416 344.160,114.300 340.584 C 112.745 338.801,107.987 338.454,105.668 339.955 M146.145 340.260 C 145.940 340.617,145.554 350.260,145.288 361.688 L 144.805 382.468 149.565 382.864 L 154.324 383.261 155.419 376.386 C 156.930 366.891,159.440 366.777,166.177 375.898 C 171.463 383.053,172.882 383.731,178.965 382.013 L 181.956 381.169 177.407 374.772 L 172.859 368.375 176.689 364.012 C 183.802 355.911,180.435 343.022,170.514 340.376 C 165.662 339.082,146.876 338.992,146.145 340.260 M204.501 340.087 C 204.168 340.420,203.896 349.946,203.896 361.255 L 203.896 381.818 209.091 381.818 L 214.286 381.818 214.286 376.156 L 214.286 370.493 221.104 369.786 C 241.311 367.691,246.506 346.200,228.204 340.410 C 224.141 339.124,205.715 338.874,204.501 340.087 M251.817 340.406 C 251.516 341.397,251.465 351.120,251.703 362.013 L 252.135 381.818 256.512 381.818 C 260.734 381.818,260.904 381.621,261.289 376.299 C 261.902 367.826,265.982 367.966,272.239 376.675 C 276.769 382.981,277.331 383.342,281.548 382.658 C 287.873 381.631,287.970 381.170,283.129 375.145 C 280.234 371.543,279.199 369.249,279.990 368.185 C 284.862 361.628,285.985 359.258,286.097 355.295 C 286.395 344.801,280.264 340.411,263.823 339.346 C 254.699 338.755,252.252 338.971,251.817 340.406 M313.636 339.913 C 293.894 344.856,296.095 378.094,316.450 382.405 C 326.409 384.514,339.683 376.317,342.719 366.183 C 347.730 349.458,332.057 335.301,313.636 339.913 M326.000 350.013 C 336.097 355.235,333.935 369.381,322.604 372.225 C 310.766 375.196,304.550 355.918,315.439 350.000 C 319.810 347.624,321.383 347.626,326.000 350.013 M169.341 352.273 C 171.766 356.141,168.773 359.035,161.880 359.487 L 155.844 359.883 155.844 354.545 L 155.844 349.208 161.880 349.604 C 165.903 349.868,168.391 350.758,169.341 352.273 M227.013 350.909 C 231.161 355.057,227.319 360.016,219.782 360.244 C 214.982 360.388,214.931 360.336,214.536 354.870 L 214.136 349.351 219.795 349.351 C 222.908 349.351,226.156 350.052,227.013 350.909 M274.536 352.273 C 276.457 355.337,274.275 358.664,269.509 359.938 C 264.049 361.399,261.039 359.210,261.039 353.779 L 261.039 349.208 267.075 349.604 C 271.098 349.868,273.586 350.758,274.536 352.273 M113.562 362.013 C 114.378 364.665,114.033 364.935,109.828 364.935 C 104.562 364.935,104.328 364.244,107.406 357.788 C 109.800 352.769,110.965 353.568,113.562 362.013 M43.496 397.420 C 42.332 399.303,49.016 413.315,50.795 412.722 C 53.303 411.886,57.649 398.688,55.970 397.009 C 54.908 395.947,54.107 396.669,52.951 399.730 C 51.003 404.890,50.311 404.931,48.449 400.000 C 46.960 396.053,44.978 395.021,43.496 397.420 M85.714 403.896 C 85.714 411.691,87.334 414.269,88.773 408.766 C 89.732 405.099,88.364 396.104,86.847 396.104 C 86.224 396.104,85.714 399.610,85.714 403.896 M105.726 397.892 C 105.348 398.876,105.221 402.528,105.442 406.009 L 105.844 412.338 110.390 411.913 C 116.170 411.374,119.244 408.689,117.074 406.074 C 116.230 405.057,115.881 403.335,116.299 402.247 C 116.758 401.050,115.884 399.447,114.084 398.187 C 110.435 395.631,106.645 395.497,105.726 397.892 M131.429 397.662 C 130.571 398.519,129.870 402.026,129.870 405.455 L 129.870 411.688 135.065 411.688 C 140.683 411.688,142.006 409.820,137.420 408.365 C 134.821 407.540,134.766 407.327,136.770 405.861 C 139.482 403.878,139.577 402.597,137.013 402.597 C 135.942 402.597,135.065 402.013,135.065 401.299 C 135.065 400.584,136.234 400.000,137.662 400.000 C 139.105 400.000,140.260 399.134,140.260 398.052 C 140.260 395.666,133.713 395.378,131.429 397.662 M150.325 397.489 C 147.177 399.347,147.483 403.182,150.974 405.618 L 153.896 407.656 150.866 407.724 C 147.511 407.800,147.604 410.063,151.051 412.238 C 154.071 414.143,157.678 411.723,158.192 407.448 C 158.484 405.022,157.868 403.889,155.920 403.271 C 152.770 402.271,152.342 400.000,155.303 400.000 C 157.794 400.000,157.033 396.877,154.438 396.451 C 153.426 396.284,151.575 396.752,150.325 397.489 M160.978 399.511 C 158.489 406.057,160.686 411.688,165.729 411.688 C 170.738 411.688,171.564 409.562,167.208 407.877 L 164.286 406.748 167.532 405.388 L 170.779 404.029 167.857 403.162 C 164.273 402.098,164.007 400.000,167.456 400.000 C 171.146 400.000,171.877 397.826,168.492 396.919 C 163.511 395.584,162.314 395.996,160.978 399.511 M197.699 397.702 C 194.090 399.441,192.689 404.316,194.596 408.501 C 196.045 411.681,201.348 413.912,203.822 412.383 C 206.447 410.761,205.173 407.962,201.623 407.554 C 195.846 406.889,196.764 402.201,202.866 401.210 C 209.134 400.191,210.111 400.941,210.618 407.160 C 211.161 413.832,213.511 413.872,214.054 407.218 C 214.284 404.402,215.396 401.422,216.525 400.597 C 217.655 399.771,218.163 398.422,217.654 397.600 C 216.483 395.704,208.772 395.644,206.900 397.516 C 205.883 398.532,205.244 398.532,204.615 397.516 C 203.546 395.785,201.565 395.838,197.699 397.702 M220.311 397.005 C 218.440 398.876,220.143 412.987,222.240 412.987 C 223.712 412.987,223.730 397.774,222.259 396.865 C 221.644 396.485,220.768 396.548,220.311 397.005 M263.088 399.026 C 265.061 405.259,268.790 412.987,269.825 412.987 C 271.321 412.987,276.623 401.817,276.623 398.667 C 276.623 394.859,274.565 395.564,272.727 400.000 C 271.840 402.143,270.728 403.896,270.257 403.896 C 269.786 403.896,268.739 402.143,267.930 400.000 C 266.159 395.309,261.622 394.396,263.088 399.026 M279.221 404.545 C 279.221 412.617,280.786 415.775,282.168 410.491 C 283.086 406.980,281.712 396.104,280.351 396.104 C 279.729 396.104,279.221 399.903,279.221 404.545 M287.836 402.922 C 284.057 411.446,284.555 413.653,289.663 411.012 C 291.999 409.804,293.653 409.577,294.159 410.394 C 298.137 416.832,299.575 409.660,295.845 401.983 C 292.223 394.526,291.521 394.609,287.836 402.922 M307.468 396.999 C 304.594 397.750,304.556 399.513,307.379 401.093 C 308.792 401.884,309.594 404.044,309.652 407.212 C 309.775 414.032,312.987 414.847,312.987 408.059 C 312.987 404.220,313.703 402.439,315.806 401.042 C 321.033 397.572,315.515 394.896,307.468 396.999 M327.905 398.942 C 326.149 402.830,323.355 403.446,322.490 400.137 C 321.320 395.663,319.699 397.010,318.766 403.231 C 317.449 412.012,319.981 416.362,322.744 410.065 C 323.449 408.458,324.903 407.143,325.974 407.143 C 327.045 407.143,328.109 408.458,328.337 410.065 C 329.227 416.331,331.169 412.546,331.169 404.545 C 331.169 395.820,330.125 394.028,327.905 398.942 M336.039 396.976 C 334.229 397.467,333.766 399.029,333.766 404.641 L 333.766 411.688 338.312 411.688 C 343.418 411.688,344.373 409.747,339.956 408.345 L 337.056 407.425 340.040 406.321 C 343.181 405.159,342.780 402.597,339.457 402.597 C 338.386 402.597,337.870 402.013,338.312 401.299 C 338.753 400.584,340.297 400.000,341.743 400.000 C 343.266 400.000,344.147 399.317,343.838 398.377 C 343.261 396.625,339.693 395.985,336.039 396.976 M58.601 403.812 C 54.680 412.927,55.069 415.266,59.794 410.990 C 61.608 409.349,62.610 409.271,65.422 410.552 C 70.302 412.775,70.692 411.528,67.463 404.022 C 63.902 395.745,62.091 395.702,58.601 403.812 M72.254 403.430 C 71.346 410.058,73.091 413.909,75.403 410.379 C 76.500 408.705,76.925 408.772,78.534 410.877 C 79.705 412.410,81.213 412.999,82.604 412.465 C 84.643 411.683,84.626 411.479,82.391 409.845 C 80.373 408.369,80.248 407.737,81.642 406.056 C 84.854 402.186,82.973 398.094,77.783 397.660 C 73.107 397.269,73.097 397.279,72.254 403.430 M93.709 400.974 C 89.963 410.452,90.246 412.936,94.750 410.123 C 96.797 408.844,97.707 408.964,99.705 410.772 C 104.680 415.274,105.519 410.870,101.272 402.546 C 98.197 396.518,95.677 395.995,93.709 400.974 M119.481 404.437 L 119.481 411.688 124.026 411.688 C 128.874 411.688,130.257 409.289,126.044 408.187 C 124.245 407.716,123.404 406.191,123.122 402.889 C 122.442 394.908,119.481 396.167,119.481 404.437 M172.727 404.545 L 172.727 411.688 177.232 411.688 C 180.703 411.688,181.565 411.241,180.989 409.740 C 180.578 408.669,179.135 407.792,177.783 407.792 C 175.781 407.792,175.325 406.829,175.325 402.597 C 175.325 399.740,174.740 397.403,174.026 397.403 C 173.312 397.403,172.727 400.617,172.727 404.545 M183.117 404.545 C 183.117 410.721,183.454 411.688,185.608 411.688 C 186.978 411.688,189.024 412.043,190.154 412.477 C 191.512 412.998,192.208 412.544,192.208 411.136 C 192.208 409.965,190.893 408.479,189.286 407.833 C 187.169 406.982,186.969 406.635,188.560 406.576 C 191.938 406.449,192.811 403.811,189.741 403.008 C 186.168 402.073,186.208 399.941,189.792 400.340 C 191.320 400.510,192.830 399.919,193.147 399.026 C 193.547 397.898,192.104 397.403,188.420 397.403 L 183.117 397.403 183.117 404.545 M227.532 398.961 C 224.780 401.714,225.714 407.399,229.396 410.295 C 233.884 413.826,234.635 413.722,239.089 408.954 L 242.857 404.920 242.857 408.304 C 242.857 410.165,243.442 411.688,244.156 411.688 C 244.870 411.688,245.455 410.418,245.455 408.865 L 245.455 406.041 248.605 409.001 C 252.862 413.000,254.545 411.501,254.545 403.711 C 254.545 396.900,252.072 395.273,250.680 401.169 C 249.992 404.081,249.977 404.078,246.748 400.423 L 243.506 396.753 243.087 400.412 L 242.668 404.071 239.578 400.737 C 236.253 397.150,230.231 396.262,227.532 398.961 M236.120 404.240 C 236.637 406.923,232.888 408.732,230.909 406.753 C 228.930 404.775,230.739 401.025,233.423 401.542 C 234.667 401.782,235.880 402.996,236.120 404.240 M47.443 430.112 C 47.119 431.051,46.685 433.859,46.479 436.353 C 45.856 443.886,41.558 443.412,41.558 435.810 C 41.558 430.950,41.132 429.870,39.215 429.870 C 36.047 429.870,35.410 439.261,38.281 443.642 C 42.891 450.677,50.649 445.892,50.649 436.013 C 50.649 430.246,48.663 426.589,47.443 430.112 M53.782 430.350 C 53.406 431.328,53.279 435.272,53.498 439.116 L 53.896 446.104 59.091 446.104 C 65.064 446.104,66.467 442.836,61.039 441.565 C 58.222 440.905,57.740 439.995,57.396 434.688 C 57.016 428.807,55.207 426.636,53.782 430.350 M67.072 431.420 C 66.630 433.068,66.261 436.899,66.251 439.935 L 66.234 445.455 72.186 445.455 C 78.388 445.455,79.976 442.636,74.249 441.793 C 70.706 441.272,70.524 438.961,74.026 438.961 C 77.533 438.961,77.323 436.886,73.701 435.750 L 70.779 434.834 73.930 433.939 C 78.294 432.701,78.961 429.870,74.890 429.870 C 73.103 429.870,70.793 429.545,69.757 429.147 C 68.546 428.682,67.588 429.493,67.072 431.420 M92.208 437.491 L 92.208 446.753 96.189 446.753 C 103.434 446.753,105.194 444.881,104.753 437.645 C 104.281 429.917,104.217 429.840,97.510 428.941 L 92.208 428.229 92.208 437.491 M125.649 429.974 C 122.408 431.862,122.841 435.754,126.623 438.729 C 128.409 440.134,129.870 441.556,129.870 441.890 C 129.870 442.224,128.409 442.218,126.623 441.876 C 122.053 441.003,122.241 445.120,126.824 446.270 C 134.067 448.088,138.540 439.190,131.903 436.166 C 127.962 434.370,127.445 432.416,131.169 433.390 C 134.067 434.148,134.588 432.510,132.208 430.130 C 130.331 428.253,128.672 428.213,125.649 429.974 M137.625 429.545 C 137.604 430.081,137.371 434.204,137.106 438.707 L 136.625 446.894 141.353 446.499 C 146.657 446.056,149.295 441.558,144.251 441.558 C 140.663 441.558,140.813 439.485,144.481 438.397 L 147.403 437.530 144.156 436.122 L 140.909 434.714 144.060 433.879 C 148.271 432.764,148.867 430.391,145.183 429.404 C 141.101 428.310,137.670 428.375,137.625 429.545 M150.116 429.538 C 149.695 429.959,149.351 434.081,149.351 438.699 L 149.351 447.095 154.646 446.385 C 168.061 444.586,168.827 431.508,155.635 429.497 C 153.021 429.098,150.537 429.117,150.116 429.538 M171.429 430.491 C 171.429 433.172,178.223 446.753,179.564 446.753 C 180.803 446.753,185.501 436.722,186.024 432.964 C 186.554 429.150,183.953 429.133,182.072 432.937 C 179.871 437.388,178.490 437.265,176.818 432.468 C 175.431 428.488,171.429 427.020,171.429 430.491 M203.562 429.338 C 201.675 431.226,202.447 445.455,204.437 445.455 C 205.449 445.455,206.533 444.724,206.845 443.831 C 207.261 442.641,208.098 442.815,209.977 444.481 C 213.510 447.611,214.711 447.326,213.771 443.581 C 213.333 441.836,213.666 438.892,214.510 437.039 C 216.735 432.157,207.347 425.553,203.562 429.338 M217.412 431.835 C 216.438 435.715,217.895 446.753,219.381 446.753 C 220.728 446.753,222.318 433.307,221.289 430.623 C 220.120 427.578,218.341 428.134,217.412 431.835 M226.212 434.800 C 222.162 444.213,222.300 447.519,226.623 444.686 C 229.608 442.730,230.127 442.727,233.049 444.641 C 238.716 448.354,237.890 439.300,231.874 431.756 L 229.047 428.210 226.212 434.800 M238.961 436.925 C 238.961 446.229,240.676 448.012,247.231 445.520 C 252.328 443.582,252.393 431.768,247.318 429.838 C 239.888 427.013,238.961 427.799,238.961 436.925 M253.512 437.338 L 253.896 446.104 258.333 446.104 C 263.756 446.104,265.081 443.342,260.495 441.599 C 257.939 440.627,257.143 439.416,257.143 436.502 C 257.143 431.850,255.987 428.571,254.347 428.571 C 253.670 428.571,253.299 432.468,253.512 437.338 M265.863 429.375 C 261.193 434.045,266.153 447.231,272.313 446.522 C 276.670 446.021,278.364 441.558,274.198 441.558 C 272.759 441.558,271.221 440.974,270.779 440.260 C 270.338 439.545,270.853 438.961,271.925 438.961 C 275.095 438.961,275.820 436.250,272.858 435.475 C 269.381 434.566,269.337 432.772,272.779 432.233 C 274.236 432.005,275.551 431.234,275.701 430.519 C 276.018 429.013,267.245 427.993,265.863 429.375 M286.580 429.437 C 284.786 431.231,285.624 445.455,287.523 445.455 C 288.518 445.455,289.650 444.628,290.038 443.617 C 290.425 442.607,292.387 440.994,294.397 440.034 C 299.096 437.788,299.796 433.382,295.889 430.645 C 292.848 428.515,288.116 427.901,286.580 429.437 M335.931 429.437 C 335.455 429.913,335.046 431.813,335.024 433.658 L 334.983 437.013 332.318 433.442 C 328.943 428.917,323.123 428.588,320.204 432.757 C 314.348 441.117,324.632 450.811,331.777 443.666 L 334.864 440.579 335.723 443.991 L 336.583 447.403 338.843 444.617 C 341.058 441.888,341.136 441.883,342.673 444.343 C 344.780 447.718,347.221 446.157,345.338 442.639 C 344.309 440.717,344.308 439.588,345.334 438.562 C 347.599 436.297,346.978 431.380,344.241 429.916 C 341.389 428.389,337.219 428.149,335.931 429.437 M348.745 437.220 C 349.767 447.035,350.076 447.846,352.040 445.882 C 354.478 443.444,352.964 429.316,350.209 428.791 C 348.007 428.372,347.893 429.033,348.745 437.220 M355.934 430.411 C 354.684 431.918,354.890 432.561,356.985 433.682 C 358.841 434.675,359.706 436.664,359.991 440.590 C 360.516 447.851,362.875 447.678,363.398 440.340 C 364.159 429.677,372.727 431.914,372.727 442.776 C 372.727 446.192,375.165 447.495,376.071 444.563 C 376.472 443.268,377.929 439.708,379.309 436.654 C 382.512 429.564,380.400 425.908,376.704 432.143 C 375.447 434.264,375.203 434.231,373.068 431.655 C 370.232 428.234,358.451 427.379,355.934 430.411 M22.339 437.806 C 22.676 444.825,25.974 451.273,25.974 444.913 C 25.974 442.304,28.411 442.227,29.400 444.805 C 29.812 445.877,31.275 446.753,32.652 446.753 C 34.803 446.753,34.948 446.364,33.679 443.994 C 32.550 441.883,32.601 440.488,33.898 438.065 C 36.384 433.420,34.088 430.611,27.401 430.117 L 21.950 429.715 22.339 437.806 M109.669 437.050 C 107.922 440.999,106.494 444.798,106.494 445.492 C 106.494 447.506,110.037 446.949,110.859 444.805 C 111.270 443.734,112.430 442.857,113.437 442.857 C 114.443 442.857,115.994 443.734,116.883 444.805 C 121.241 450.057,122.105 443.957,118.217 435.390 C 114.927 428.142,113.484 428.422,109.669 437.050 M188.485 436.537 C 184.397 446.373,184.879 449.087,189.905 444.538 C 191.904 442.730,192.813 442.611,194.860 443.889 C 200.550 447.442,201.310 442.012,196.323 433.442 C 193.337 428.310,191.622 428.987,188.485 436.537 M300.000 437.586 C 300.000 445.215,301.564 448.722,303.138 444.621 C 303.888 442.665,304.129 442.665,306.298 444.628 C 310.279 448.231,313.809 446.797,310.097 443.084 C 308.842 441.829,308.842 440.956,310.097 438.946 C 313.744 433.107,311.495 429.870,303.790 429.870 C 300.028 429.870,300.000 429.927,300.000 437.586 M313.775 431.924 C 312.095 436.303,313.477 446.753,315.736 446.753 C 316.367 446.753,316.883 442.955,316.883 438.312 C 316.883 430.297,315.495 427.443,313.775 431.924 M159.091 437.662 C 159.091 441.724,155.111 442.790,153.923 439.047 C 152.854 435.676,154.163 433.502,156.939 434.037 C 158.250 434.289,159.091 435.705,159.091 437.662 M210.390 435.065 C 210.390 435.779,209.513 436.364,208.442 436.364 C 207.370 436.364,206.494 435.779,206.494 435.065 C 206.494 434.351,207.370 433.766,208.442 433.766 C 209.513 433.766,210.390 434.351,210.390 435.065 M328.375 434.916 C 331.003 436.582,329.608 440.850,326.280 441.325 C 322.790 441.823,321.076 438.486,323.390 435.698 C 325.227 433.485,325.940 433.373,328.375 434.916 M342.208 435.065 C 341.766 435.779,340.529 436.364,339.457 436.364 C 338.386 436.364,337.870 435.779,338.312 435.065 C 338.753 434.351,339.991 433.766,341.062 433.766 C 342.134 433.766,342.649 434.351,342.208 435.065 M80.519 438.961 C 80.519 441.064,81.385 441.558,85.065 441.558 C 88.745 441.558,89.610 441.064,89.610 438.961 C 89.610 436.858,88.745 436.364,85.065 436.364 C 81.385 436.364,80.519 436.858,80.519 438.961  M -25 0 L -5 0 L -5 20 L -25 20 Z M 405 0 L 425 0 L 425 20 L 405 20 Z" stroke="none" fill="#000000" fill-rule="evenodd" transform="translate(30,0)"></path></g></svg><style>@media (prefers-color-scheme: light) { :root { filter: none; } }
@media (prefers-color-scheme: dark) { :root { filter: none; } }
</style></svg>